<?xml version="1.0" standalone="no"?>
<!DOCTYPE svg PUBLIC "-//W3C//DTD SVG 1.1//EN" "http://www.w3.org/Graphics/SVG/1.1/DTD/svg11.dtd" >
<svg xmlns="http://www.w3.org/2000/svg">
<metadata></metadata>
<defs>
<font id="steinerregular" horiz-adv-x="1472" >
<font-face units-per-em="2048" ascent="1638" descent="-410" />
<missing-glyph horiz-adv-x="601" />
<glyph horiz-adv-x="0" />
<glyph unicode="&#xd;" horiz-adv-x="120" />
<glyph unicode=" "  horiz-adv-x="601" />
<glyph unicode="&#x09;" horiz-adv-x="601" />
<glyph unicode="&#xa0;" horiz-adv-x="601" />
<glyph unicode="!" horiz-adv-x="210" d="M60 320v1400h90v-1400h-90zM61 0v207h89v-207h-89z" />
<glyph unicode="&#x26;" horiz-adv-x="1708" d="M60 496v12q0 103 36 224q83 190 252 272q94 40 120 40l4 4v4q-180 167 -180 208q-32 84 -32 124q0 144 84 236q99 100 248 100q131 0 244 -108q72 -108 72 -188v-44q0 -92 -86 -209l-66 69q60 50 60 164v8q0 117 -108 184q-64 32 -124 32h-16q-49 0 -124 -40 q-92 -73 -92 -192q0 -125 140 -236q546 -552 556 -552v200h88v-292l512 -516h-120l-404 396q-50 -176 -148 -260q-165 -136 -328 -136h-36q-340 0 -492 272q-36 66 -60 224zM152 560q0 -212 104 -320q29 -45 136 -108q97 -40 208 -40h52q108 0 256 104q94 97 116 188l20 96 l-492 488q-102 0 -252 -100q-120 -132 -132 -220z" />
<glyph unicode="'" horiz-adv-x="228" d="M80 1370l46 138h-26v212h88v-184q0 -53 -76 -188z" />
<glyph unicode="*" horiz-adv-x="509" d="M60 1491v66h115l-97 100l45 45l100 -97v115h66v-115l100 97l45 -45l-97 -100h112v-66h-112l97 -100l-45 -45l-100 96v-111h-66v111l-100 -96l-45 45l97 100h-115z" />
<glyph unicode="+" horiz-adv-x="794" d="M60 600v128h268v273h128v-273h278v-128h-278v-273h-128v273h-268z" />
<glyph unicode="," horiz-adv-x="228" d="M60 -150l46 138h-26v212h88v-184q0 -53 -76 -188z" />
<glyph unicode="-" horiz-adv-x="794" d="M60 603v128h674v-128h-674z" />
<glyph unicode="." horiz-adv-x="208" d="M60 0v208h88v-208h-88z" />
<glyph unicode="/" horiz-adv-x="1476" d="M60 0l1252 1720h104v-4l-1252 -1716h-104z" />
<glyph unicode="0" horiz-adv-x="1376" d="M60 640v424q0 418 352 596q162 56 260 56h40q128 0 296 -76q308 -182 308 -528v-508q0 -240 -152 -408q-38 -46 -112 -96q-155 -88 -232 -88q0 -9 -80 -12h-88q-211 0 -416 172q-140 166 -160 320q-16 71 -16 148zM156 720q0 -274 76 -376q64 -139 272 -220 q110 -32 172 -32h24q179 0 352 128q172 155 172 420v432q0 331 -256 476q-133 72 -264 72h-28q-188 0 -372 -148q-73 -89 -112 -180q-36 -95 -36 -300v-272z" />
<glyph unicode="1" horiz-adv-x="476" d="M60 1628v92h356v-1720h-88v1628h-268z" />
<glyph unicode="2" horiz-adv-x="1284" d="M60 1136v20q0 179 132 352q98 112 160 132q130 80 284 80q159 0 268 -60q44 -17 108 -64q102 -90 144 -172q68 -139 68 -268v-76q0 -114 -96 -284q-72 -77 -468 -400q-304 -260 -360 -300v-4h916v-92h-1152l964 808q60 84 88 176l20 116q0 299 -192 432q-43 41 -176 80 l-116 16h-24q-128 0 -272 -80q-137 -92 -192 -256l-20 -156h-84z" />
<glyph unicode="3" horiz-adv-x="1292" d="M60 0v88h744q133 0 248 108q88 116 88 252h4q-24 171 -64 208q-45 92 -192 144q-41 12 -152 12h-596v92h672q169 0 284 176q25 33 48 180q-12 128 -44 184q-55 115 -196 168q-61 16 -200 16h-644v88h736q174 0 316 -132l64 -92q56 -120 56 -192v-32q0 -280 -224 -408v-8 q112 -45 192 -212q32 -96 32 -192v-32q-28 -172 -48 -172q-56 -121 -164 -188q-113 -52 -192 -52l-172 -4h-596z" />
<glyph unicode="4" horiz-adv-x="1292" d="M60 408v4l904 1308h92v-1224h176v-88h-176v-408h-92v408h-904zM228 496h736v1072l-736 -1068v-4z" />
<glyph unicode="5" horiz-adv-x="1276" d="M60 484v8h92v-4q0 -113 128 -264q147 -124 260 -124q25 -12 80 -12h36q108 0 244 68q148 84 212 264q20 95 20 140v4q0 365 -340 484q-85 24 -148 24q-256 0 -412 -196v-4q-88 28 -88 36l168 808h816v-88h-736l-124 -600h4q116 89 272 116q0 10 128 16q134 -7 260 -68 q86 -47 168 -136q116 -177 116 -320v-140q-32 -183 -116 -280q-96 -107 -180 -148q-150 -68 -260 -68h-80q-90 0 -240 64q-183 109 -244 280q-36 100 -36 140z" />
<glyph unicode="6" horiz-adv-x="1288" d="M60 592q18 221 124 368q391 599 504 760h104l-396 -604v-4q112 56 268 56q118 0 276 -80q146 -94 204 -204q84 -120 84 -324q0 -216 -192 -416q-185 -140 -324 -140l-52 -4h-64q-98 0 -252 72q-284 187 -284 520zM152 560q0 -202 168 -360q152 -108 312 -108h16 q204 0 356 136q140 151 140 360q0 160 -108 312q-154 172 -380 172h-24q-212 0 -368 -164q-112 -147 -112 -304v-44z" />
<glyph unicode="7" horiz-adv-x="1296" d="M60 1628v92h1176l-732 -1716v-4h-104l688 1628h-1028z" />
<glyph unicode="8" horiz-adv-x="1160" d="M60 540q0 88 52 228q25 71 140 176q67 55 160 84q60 17 60 24q-196 176 -196 248q-12 1 -16 116v4q5 88 64 180q102 116 264 116q127 0 224 -88q92 -91 92 -248q-29 -152 -48 -152q0 -17 -164 -180q187 -48 284 -164q124 -135 124 -360q0 -265 -212 -432 q-58 -49 -180 -80q-23 -12 -132 -12q-121 0 -196 36q-66 12 -184 124q-76 104 -108 196q-20 61 -28 184zM152 500q0 -207 180 -344q118 -68 248 -68l4 -4q89 0 236 68q134 90 176 228q16 62 20 128q0 315 -296 432l-136 24q-134 0 -264 -76q-168 -146 -168 -344v-44z M352 1388q0 -115 120 -212l108 -108q208 198 208 220q24 64 24 108v12q0 145 -152 208l-84 12q-97 -12 -124 -36q-100 -63 -100 -204z" />
<glyph unicode="9" horiz-adv-x="1288" d="M60 1108q0 294 224 484q171 124 352 124q312 0 484 -232q108 -151 108 -360q0 -220 -184 -468l-432 -656h-108v4l392 596v4q-119 -56 -260 -56h-4q-152 0 -312 100q-173 122 -232 316q-28 98 -28 144zM148 1132q0 -258 208 -408q141 -84 288 -84q169 0 304 96 q115 74 172 244q16 67 20 136q-8 360 -304 472q-38 20 -164 36h-36q-166 0 -328 -116q-148 -155 -148 -288q-12 -46 -12 -88z" />
<glyph unicode=":" horiz-adv-x="208" d="M60 290v208h88v-208h-88zM60 790v208h88v-208h-88z" />
<glyph unicode=";" horiz-adv-x="228" d="M60 -464l46 138h-26v212h88v-184q0 -53 -76 -188zM79 0v207h89v-207h-89z" />
<glyph unicode="?" horiz-adv-x="1196" d="M60 1156q0 240 144 400q162 164 404 164q115 0 268 -68q117 -74 164 -152q96 -120 96 -328q0 -272 -224 -416q-133 -94 -176 -140q-52 -46 -52 -212v-84h-88v176q0 96 84 188q60 56 180 136q122 100 160 200q16 53 28 168q0 124 -76 256q-91 123 -228 160q-65 24 -152 24 q-111 -2 -170 -25t-138 -91q-136 -134 -136 -340v-64h-84v4zM596 0v208h88v-208h-88z" />
<glyph unicode="A" horiz-adv-x="1473" d="M60 0l1 1012q0 315 196 512q121 126 364 176q16 8 164 12q179 -14 336 -108q292 -194 292 -552v-1052h-92v804h-1164v-804h-97zM153 892h1168v168q0 226 -180 416q-189 136 -388 140q-287 0 -456 -196q-144 -167 -144 -412v-116z" />
<glyph unicode="B" horiz-adv-x="1464" d="M60 0v1720h776q113 0 248 -84q180 -165 180 -380q0 -254 -204 -360q0 -7 96 -32q248 -137 248 -420q0 -264 -232 -400q-106 -44 -176 -44h-936zM152 92h792q160 0 228 64q81 44 132 200q7 96 12 96q-22 163 -64 208q-62 100 -180 136q-49 16 -92 16l-828 -4v-716z M152 904h608q204 0 272 68q85 54 128 204l12 88q-29 184 -48 184q-52 109 -196 164q-70 16 -108 16h-668v-724z" />
<glyph unicode="C" d="M60 860q0 176 96 392q149 271 424 396q173 72 364 72h468v-96h-480q-387 0 -636 -328q-140 -207 -140 -444q0 -319 264 -576q159 -128 284 -152q74 -36 264 -36h444v-88h-508q-354 0 -636 296q-102 130 -144 236q-64 188 -64 328z" />
<glyph unicode="D" d="M60 0v1720h472q396 0 668 -292q212 -254 212 -544v-48q0 -313 -248 -588q-273 -248 -592 -248h-512zM152 96h488q116 12 212 56q46 12 180 108q288 254 288 600q0 310 -244 564l-100 80q-185 110 -356 120l-64 8l-68 -4h-336v-1532z" />
<glyph unicode="E" d="M60 860q0 176 96 392q149 271 424 396q173 72 364 72h468v-96h-480q-378 0 -628 -316q-111 -155 -140 -348l-8 -60h864v-92h-864q20 -204 136 -388q145 -199 348 -276q118 -56 328 -56h444v-88h-508q-354 0 -636 296q-102 130 -144 236q-64 188 -64 328z" />
<glyph unicode="F" d="M60 0v724q0 275 40 380q0 45 100 220q276 396 744 396h468v-96h-476q-281 0 -496 -172q-119 -108 -144 -160q-97 -127 -124 -300l-16 -92h864v-88h-864v-812h-96z" />
<glyph unicode="G" d="M60 888q0 114 76 324q6 1 40 76q161 274 496 396q142 36 272 36h468v-100h-468q-289 0 -508 -184q-86 -77 -144 -160q-114 -177 -128 -344l-4 -28v-28l-4 -16q0 -97 52 -268q75 -171 204 -296l76 -60q122 -87 288 -128l144 -20q214 0 404 128v432h-320v92h408v-740h-88 v96h-4q-124 -68 -292 -92l-116 -4h-40q-178 0 -412 132q-140 99 -188 168q-212 242 -212 588z" />
<glyph unicode="H" d="M60 0v1720h92v-820h1172v820h88v-1720h-88v808h-1172v-808h-92z" />
<glyph unicode="I" horiz-adv-x="208" d="M60 0v1720h88v-1720h-88z" />
<glyph unicode="J" horiz-adv-x="796" d="M60 0v92h16q192 0 372 132q200 180 200 464v1032h88v-996q0 -272 -96 -412q-97 -186 -348 -276q-101 -36 -232 -36z" />
<glyph unicode="K" horiz-adv-x="1468" d="M60 0v1720h92v-1136l1136 1136h120v-4l-744 -748l652 -968h-112l-532 784l-80 112q-370 -364 -440 -444v-452h-92z" />
<glyph unicode="L" d="M60 0v1720h96v-1628h1256v-92h-1352z" />
<glyph unicode="M" d="M60 0v1720h96q11 -5 104 -268l476 -1268h8l568 1536h100v-1720h-88v1472h-4l-552 -1472h-52q-7 1 -76 188l-484 1284h-4v-1472h-92z" />
<glyph unicode="N" horiz-adv-x="1352" d="M60 0v1720h96q44 -53 868 -1288l176 -260h4v1548h88v-1720h-88l-980 1448l-68 104h-4v-1552h-92z" />
<glyph unicode="O" d="M60 696v308q0 218 100 396q125 193 352 268q121 35 212 36q206 0 388 -104q174 -117 236 -264q36 -64 60 -208l4 -76v-396q0 -280 -192 -472q-197 -184 -492 -184h-36q-178 0 -380 132q-252 204 -252 564zM156 704q0 -441 412 -580q112 -20 156 -20h32q164 0 332 104 q92 64 140 144q66 83 96 272v396q-4 273 -232 464q-172 108 -300 108l-52 8q-97 0 -228 -40q-206 -78 -304 -280q-52 -133 -52 -272v-304z" />
<glyph unicode="P" horiz-adv-x="1468" d="M60 0v1720h896q171 0 296 -96q108 -102 132 -196l24 -96v-128q0 -33 -44 -164q-79 -145 -240 -212q-92 -20 -128 -20h-844v-808h-92zM152 900h840q156 0 268 148q64 96 64 220q0 222 -204 332q-80 29 -144 29h-12l-124 -1h-688v-728z" />
<glyph unicode="Q" d="M60 716v296q0 289 164 480q97 105 208 152q31 29 232 64l60 4q206 0 388 -104q176 -121 236 -264q36 -64 60 -208l4 -76v-392q0 -253 -160 -444l160 -164l-64 -60l-160 160h-4q-186 -152 -456 -152h-4q-311 0 -516 236q-148 188 -148 472zM156 680q4 -126 56 -252 q85 -184 288 -272q137 -44 192 -44h44q204 0 380 120l-336 340l64 60l336 -332q98 114 124 228l20 112v388q-4 273 -232 464q-172 108 -300 108l-52 8q-97 0 -228 -40q-349 -142 -356 -552v-336z" />
<glyph unicode="R" horiz-adv-x="1468" d="M60 0v1720h928q132 0 260 -92q78 -66 116 -148q44 -102 44 -160v-116q-23 -141 -84 -224q-136 -172 -360 -172l440 -768l-80 -40q-452 792 -468 808h-704v-808h-92zM152 900h772q223 0 308 116q92 107 92 248q0 175 -128 292q-113 76 -212 76h-832v-732z" />
<glyph unicode="S" horiz-adv-x="1468" d="M60 0v84h804q192 0 248 32q200 97 200 348q0 79 -60 196q-60 99 -196 144l-76 12h-536q-136 0 -268 136q-108 142 -108 292v20q0 229 184 376q126 76 272 76h884v-88h-812q-187 0 -252 -40q-184 -101 -184 -328q0 -216 200 -328q78 -28 132 -28h548q81 0 204 -84 q160 -145 160 -368q0 -268 -228 -404q-101 -48 -176 -48h-940z" />
<glyph unicode="T" d="M60 1628v92h1352v-92h-628v-1628h-92v1628h-632z" />
<glyph unicode="U" d="M60 696v1016h96v-1008q0 -441 412 -580q112 -20 156 -20h32q157 0 320 96q105 69 168 176q44 66 76 216v1120h92v-1056q0 -351 -292 -552q-172 -104 -400 -104h-24q-209 0 -424 164q-120 122 -156 232q-10 8 -44 148q-12 87 -12 152z" />
<glyph unicode="V" d="M60 1720h96q11 -5 104 -268l476 -1268h8l568 1536h100v-4l-644 -1716h-52q-8 4 -84 208z" />
<glyph unicode="W" d="M60 1720h88q10 0 32 -172l220 -1300h4l288 1472h92l284 -1472h4l252 1472h88v-4l-292 -1716h-92q-9 0 -32 156q-252 1345 -252 1372h-8l-288 -1528h-92z" />
<glyph unicode="X" horiz-adv-x="1484" d="M60 1720h108q30 -30 344 -468l228 -312h4l464 628q104 145 116 152h96v-4l-624 -856l628 -860h-108l-528 720l-44 56q-80 -100 -536 -728l-40 -48h-100l624 856z" />
<glyph unicode="Y" horiz-adv-x="1476" d="M60 1720h104q14 -10 524 -724l52 -68q12 8 472 656l104 136h100v-4l-632 -884v-832h-92v836z" />
<glyph unicode="Z" horiz-adv-x="1480" d="M60 0l1184 1628h-1180v92h1356v-4l-1184 -1624h1180v-92h-1356z" />
<glyph unicode="\" horiz-adv-x="1480" d="M60 1720h104q31 -31 672 -920l584 -800h-104z" />
<glyph unicode="a" horiz-adv-x="1384" d="M60 632q0 145 80 316q126 213 368 284q121 24 164 24q380 0 564 -284v288h88v-1260h-88v280q-111 -178 -348 -256q-87 -24 -140 -24h-36q-236 0 -392 112q-158 108 -224 304q-36 124 -36 216zM156 632l4 -4v-16q0 -299 268 -452q134 -64 252 -64h24q242 0 416 192 q112 159 112 344q0 252 -196 416q-160 112 -332 112h-24q-195 0 -372 -148q-148 -160 -148 -368v-8z" />
<glyph unicode="b" horiz-adv-x="1384" d="M60 0v1720h92v-748h4q96 173 328 252q98 32 216 32h28q185 0 388 -148q121 -111 164 -228q44 -98 44 -256q0 -179 -68 -296q-84 -187 -312 -284q-118 -44 -264 -44h-28q-211 0 -412 172q-52 56 -88 108v-280h-92zM156 632l4 -4v-16q0 -355 360 -492q87 -24 176 -24 q302 0 468 256q68 144 68 276q0 196 -128 360q-125 114 -208 136q-106 36 -200 36q-207 0 -380 -140q0 -8 -36 -40q-120 -153 -120 -324v-20z" />
<glyph unicode="c" horiz-adv-x="1292" d="M60 604q0 151 68 320l52 84q106 156 308 216q74 32 312 32h432v-96h-460q-267 0 -368 -80q-143 -71 -220 -292q-16 -63 -24 -160q8 -120 40 -212q80 -191 256 -276q100 -48 320 -48h456v-92h-568q-293 0 -484 240q-62 89 -96 220z" />
<glyph unicode="d" horiz-adv-x="1384" d="M60 632q0 107 56 268q109 228 340 312q117 43 208 44h20q347 0 540 -264l8 -20h4v748h88v-1720h-88v280q-99 -153 -276 -232q-134 -48 -220 -48h-24q-211 0 -352 84q-182 97 -264 316q-40 144 -40 232zM156 632l4 -4v-16q0 -333 324 -480q102 -36 212 -36q296 0 460 244 q76 141 76 288q0 189 -120 348q-85 92 -168 128q-127 56 -248 56q-216 0 -380 -144q-106 -107 -132 -212q-24 -81 -24 -148v-20z" />
<glyph unicode="e" horiz-adv-x="1384" d="M60 628q0 153 80 324q105 178 316 260q109 32 224 44q276 0 476 -184l64 -80q104 -160 104 -352v-28h-1164v-20q0 -161 116 -316q130 -125 232 -152q102 -32 172 -32q351 0 504 300q24 53 36 128h96v-8q0 -92 -96 -260q-111 -145 -288 -216q-129 -36 -204 -36h-64 q-180 0 -360 116q-148 134 -176 208q-68 150 -68 304zM168 704h1056v4q-23 149 -84 228q-89 127 -232 180q-118 42 -212 44q-79 0 -228 -44q-97 -44 -192 -140q-108 -146 -108 -272z" />
<glyph unicode="f" horiz-adv-x="808" d="M60 0v1020q0 329 200 524q124 115 328 160l80 12h80v-92h-4q-422 0 -552 -364h512v-92h-540l-12 -148v-1020h-92z" />
<glyph unicode="g" horiz-adv-x="1384" d="M60 628q0 115 64 288q33 65 120 164q197 176 464 176q250 0 464 -196l64 -88v284h88v-1128q0 -287 -232 -468q-139 -90 -252 -108q-20 -12 -160 -12h-12q-219 0 -424 172q-131 145 -152 284h100q15 -94 124 -216l80 -64q140 -80 280 -80l48 -8q162 18 248 68 q156 76 228 256q36 98 36 216v112h-4q-81 -161 -324 -252q-106 -32 -228 -32h-16q-158 0 -352 116q-129 105 -176 200q-76 165 -76 316zM156 624l4 -4v-16q0 -174 112 -324q93 -99 140 -112q127 -72 224 -72l36 -4h44q150 0 324 112q138 130 156 228q36 93 36 192 q0 238 -172 404q-97 73 -144 84q-134 48 -220 48q-188 -20 -264 -64q-272 -156 -272 -456v-12z" />
<glyph unicode="h" horiz-adv-x="1384" d="M60 0v1724h92v-748h4q86 153 276 232q111 52 276 52h16q170 0 368 -128q142 -120 184 -244q48 -82 48 -284v-604h-92v620q0 372 -344 512q-73 25 -196 32q-205 0 -380 -140l-40 -44q-120 -141 -120 -404v-576h-92z" />
<glyph unicode="i" horiz-adv-x="210" d="M60 0v1260h90v-1260h-90zM60 1513v207h89v-207h-89z" />
<glyph unicode="j" horiz-adv-x="797" d="M60 -619h16q193 0 372 132q200 181 200 464v1282h88v-1246q0 -272 -96 -412q-97 -186 -348 -276q-100 -36 -232 -36v92zM648 1513v207h89v-207h-89z" />
<glyph unicode="k" horiz-adv-x="1256" d="M60 0v1720h92v-1164h4q346 0 588 276q135 165 168 348l12 80h88q-19 -182 -76 -300q-44 -109 -204 -280q-8 0 -40 -32q-38 -32 -48 -32v-4q144 -12 304 -108q248 -197 248 -492v-8h-96v44q0 80 -76 232q-163 244 -468 244q-52 0 -244 -44l-156 -20h-4v-460h-92z" />
<glyph unicode="l" horiz-adv-x="212" d="M60 0v1720h92v-1720h-92z" />
<glyph unicode="m" d="M60 0v800q0 242 192 380q115 80 272 80q89 0 216 -52q129 52 204 52h20q180 0 328 -132q120 -132 120 -296v-832h-88v824q0 118 -92 232q-114 116 -288 116q-50 0 -152 -36v-1136h-92v1128q-100 44 -196 44q-129 -15 -192 -56q-160 -119 -160 -295v-9v-812h-92z" />
<glyph unicode="n" horiz-adv-x="1384" d="M60 0v1264h92v-288q37 59 108 128q121 91 144 92q128 64 324 64q191 -15 352 -120q166 -122 228 -340q16 -60 16 -196v-604h-92v616q0 380 -348 516q-56 21 -192 32q-120 0 -268 -64q-89 -54 -116 -84q-96 -90 -140 -248q-16 -92 -16 -220v-548h-92z" />
<glyph unicode="o" horiz-adv-x="1384" d="M60 632q0 179 104 356q182 254 512 268q183 0 360 -92q181 -108 252 -312q36 -102 36 -204v-48q0 -184 -112 -356q-113 -132 -180 -156q-129 -76 -208 -76q0 -12 -160 -12h-8q-167 0 -344 112q-252 188 -252 520zM156 624q0 -200 128 -356q81 -90 216 -144 q117 -32 184 -32h20q167 0 340 116q103 97 132 168q56 130 56 256q0 115 -60 252q-94 170 -272 236q-87 32 -204 40q-135 0 -288 -76q-149 -92 -212 -244q-29 -71 -40 -216z" />
<glyph unicode="p" horiz-adv-x="1384" d="M60 -460v1720h92v-288q128 171 220 204q127 80 356 80q142 -7 284 -76q198 -108 284 -340q28 -76 28 -216q0 -192 -80 -320q-96 -186 -344 -276q-118 -32 -224 -32q-218 0 -408 152q-91 86 -112 132h-4v-740h-92zM156 628l4 -4v-16q0 -255 212 -416q154 -96 300 -96h44 q135 0 292 88q224 169 224 444q0 182 -116 344q-175 188 -412 188h-24q-174 0 -352 -128q-168 -164 -168 -388v-12z" />
<glyph unicode="q" horiz-adv-x="1384" d="M60 632q0 138 76 308q36 70 140 172q162 125 348 140l48 4q380 0 564 -284v288h88v-1720h-88v740h-4q-96 -174 -352 -260q-101 -24 -172 -24q-312 0 -508 224q-120 161 -132 320zM156 628l4 -4v-16q0 -271 232 -428q144 -84 280 -84h44q135 0 292 88q145 96 204 296 q20 95 20 148q0 250 -192 420q-169 112 -336 112h-24q-174 0 -352 -128q-168 -167 -168 -388v-12z" />
<glyph unicode="r" horiz-adv-x="564" d="M60 0v1260h88v-176q146 172 348 172h8v-88h-4q-193 0 -296 -156q-52 -71 -52 -236v-776h-92z" />
<glyph unicode="s" horiz-adv-x="1288" d="M60 0v88h796q220 0 272 180l8 64q0 153 -152 224l-72 16h-508h-12q-99 0 -192 60q-136 115 -136 280q0 154 124 276q93 72 268 72h772v-92h-792q-207 0 -264 -168q-16 -52 -16 -92q0 -108 92 -192q73 -52 128 -56h556q105 -12 184 -80q82 -78 100 -160l8 -52v-84 q-12 -98 -92 -192q-65 -62 -168 -88l-88 -4h-816z" />
<glyph unicode="t" horiz-adv-x="796" d="M60 696v1024h92v-456h548v-92h-548v-516q2 -109 56 -244q31 -82 172 -212q174 -108 344 -108h12v-92h-4q-296 0 -504 212q-168 196 -168 484z" />
<glyph unicode="u" horiz-adv-x="1384" d="M60 644v616h96v-536q0 -272 72 -372q77 -146 256 -216q113 -40 196 -40h32q161 0 332 112q192 164 192 436v620h88v-1264h-88v280q-112 -178 -340 -252q-82 -28 -156 -28h-24q-325 0 -496 204q-98 88 -144 288q-16 100 -16 152z" />
<glyph unicode="v" horiz-adv-x="1124" d="M60 1260h96q6 0 88 -220l316 -856h8l396 1076h100v-4l-468 -1256h-56q-16 20 -128 332z" />
<glyph unicode="w" d="M60 456v804h96v-836q13 -135 68 -196q61 -88 188 -128l100 -16l136 24q-110 113 -116 176q-28 59 -28 236v100h92v-88q0 -234 64 -300q65 -72 80 -76q148 87 148 360v104h84v-172q0 -215 -144 -340q84 -20 128 -20h4l4 -4l4 4h16q122 0 236 96q100 111 104 212v864h88 v-836q0 -210 -180 -344q-121 -80 -240 -80h-84q-41 0 -168 48h-8q-114 -48 -172 -48h-76q-186 0 -336 172q-88 128 -88 284z" />
<glyph unicode="x" horiz-adv-x="1288" d="M60 1260h116q25 -21 224 -268l244 -288q67 71 456 544l16 12h112v-4l-524 -628l524 -628h-112q-126 142 -456 544l-16 12q-25 -21 -224 -268l-240 -288h-116l524 628z" />
<glyph unicode="y" horiz-adv-x="1124" d="M60 1260h96q6 0 88 -220l316 -856h8l396 1076h100v-4l-640 -1716h-96v4l188 516z" />
<glyph unicode="z" horiz-adv-x="1288" d="M60 0v76l1036 1092h-1036v92h1168v-80q0 -23 -88 -100q0 -8 -472 -496l-472 -496h1032v-88h-1168z" />
<glyph unicode="&#xad;" horiz-adv-x="794" d="M60 603v128h674v-128h-674z" />
<glyph unicode="&#x2000;" horiz-adv-x="862" />
<glyph unicode="&#x2001;" horiz-adv-x="1724" />
<glyph unicode="&#x2002;" horiz-adv-x="862" />
<glyph unicode="&#x2003;" horiz-adv-x="1724" />
<glyph unicode="&#x2004;" horiz-adv-x="574" />
<glyph unicode="&#x2005;" horiz-adv-x="431" />
<glyph unicode="&#x2006;" horiz-adv-x="287" />
<glyph unicode="&#x2007;" horiz-adv-x="287" />
<glyph unicode="&#x2008;" horiz-adv-x="215" />
<glyph unicode="&#x2009;" horiz-adv-x="344" />
<glyph unicode="&#x200a;" horiz-adv-x="95" />
<glyph unicode="&#x2010;" horiz-adv-x="794" d="M60 603v128h674v-128h-674z" />
<glyph unicode="&#x2011;" horiz-adv-x="794" d="M60 603v128h674v-128h-674z" />
<glyph unicode="&#x2012;" horiz-adv-x="794" d="M60 603v128h674v-128h-674z" />
<glyph unicode="&#x2013;" horiz-adv-x="1144" d="M60 603v128h1024v-128h-1024z" />
<glyph unicode="&#x2014;" horiz-adv-x="2168" d="M60 603v128h2048v-128h-2048z" />
<glyph unicode="&#x202f;" horiz-adv-x="344" />
<glyph unicode="&#x205f;" horiz-adv-x="431" />
<glyph unicode="&#x20ac;" horiz-adv-x="1592" d="M60 684v92h124l-4 84l4 76h-124v92h140q4 72 96 260q161 273 480 388q107 44 380 44h376v-96h-512q-237 0 -444 -160q-111 -95 -180 -196q-73 -125 -100 -240h1120v-92h-1136l-4 -80l4 -80h1136v-92h-1120q59 -219 184 -344q102 -111 188 -152q187 -100 356 -100h508v-88 h-500q-347 0 -624 272l-52 68q-131 185 -156 344h-140z" />
<glyph unicode="&#x25fc;" horiz-adv-x="1260" d="M0 0v1260h1260v-1260h-1260z" />
</font>
</defs>
</svg>
