<svg width="100%" height="100%" viewBox="0 0 296 300" version="1.1" xmlns="http://www.w3.org/2000/svg" xmlns:xlink="http://www.w3.org/1999/xlink" xml:space="preserve" style="fill-rule:evenodd;clip-rule:evenodd;stroke-linejoin:round;stroke-miterlimit:1.41421;"><g><path d="M18.7585,99.0446l-0.0583333,-0.0291667c-5.94167,-2.9125 -8.6875,-9.76667 -5.65417,-15.95c1.86667,-3.8125 4.3375,-5.42917 7.35,-6.55833l0.941667,2.475c-2.54583,0.945833 -4.71667,2.3375 -6.11667,5.1875c-2.27917,4.65 -0.208333,9.9875 4.625,12.3583l0.0583333,0.025c4.8625,2.3875 10.3958,0.745833 12.6625,-3.875c1.4125,-2.88333 1.22917,-5.31667 0.295833,-8.27083l2.29583,-0.808333c1.14583,3.27917 1.4375,6.4 -0.429167,10.2125c-2.975,6.0625 -9.9375,8.19167 -15.9708,5.23333" style="fill:#0078bf;fill-rule:nonzero;"/><path d="M33.759,74.6671l-10.7417,-8.34583l1.62083,-2.08333l10.6083,8.24167c3.98333,3.09583 7.86667,2.72917 10.6167,-0.808333c2.64583,-3.40417 2.26667,-7.16667 -1.77083,-10.3042l-10.7417,-8.34583l1.62083,-2.08333l10.5833,8.22083c5.38333,4.18333 5.77917,9.44583 2.19167,14.0625c-3.54583,4.5625 -8.7625,5.50417 -13.9875,1.44583" style="fill:#0078bf;fill-rule:nonzero;"/><path d="M58.6627,44.8371c2.6625,-2.28333 3.39167,-5.28333 1.43333,-7.57083l-0.0416667,-0.05c-1.87083,-2.17917 -4.67917,-2.06667 -7.54583,0.391667l-5.47917,4.7l6.17917,7.20417l5.45417,-4.675ZM43.4377,42.1746l7.63333,-6.55c2.18333,-1.87083 4.5,-2.70833 6.575,-2.55c1.60417,0.120833 3.175,0.929167 4.375,2.325l0.0416667,0.0541667c2.525,2.94167 1.97083,6.40833 -0.383333,9.30833l11.6792,2.57917l-2.4625,2.1125l-11.0708,-2.4875l-5.075,4.35l5.91667,6.90417l-2.00417,1.71667l-15.225,-17.7625Z" style="fill:#0078bf;fill-rule:nonzero;"/><path d="M66.4115,24.24l2.22917,-1.41667l12.5542,19.75l-2.22917,1.41667l-12.5542,-19.75Z" style="fill:#0078bf;fill-rule:nonzero;"/><path d="M98.6473,24.1667l-9.6625,-8.79583l-0.104167,13.0792l9.76667,-4.28333ZM86.6431,13.0375l2.26667,-0.995833l19.2375,17.3042l-2.6,1.1375l-4.99583,-4.55833l-11.6667,5.1125l-0.0583333,6.78333l-2.47917,1.0875l0.295833,-25.8708Z" style="fill:#0078bf;fill-rule:nonzero;"/><path d="M130.906,13.0237c3.47917,-0.466667 5.72083,-2.59167 5.32083,-5.575l-0.00833333,-0.0625c-0.3875,-2.85 -2.80417,-4.27917 -6.54583,-3.775l-7.15417,0.966667l1.26667,9.40833l7.12083,-0.9625ZM119.573,2.51125l9.97083,-1.34583c2.85,-0.379167 5.25,0.170833 6.90417,1.43333c1.27917,0.975 2.15833,2.50833 2.40417,4.32917l0.00833333,0.0666667c0.520833,3.84167 -1.825,6.45 -5.37917,7.60417l8.4,8.5125l-3.21667,0.433333l-7.9375,-8.10417l-6.625,0.895833l1.21667,9.00833l-2.61667,0.354167l-3.12917,-23.1875Z" style="fill:#0078bf;fill-rule:nonzero;"/><path d="M162.207,15.3708l-4.59167,-12.2292l-6.05,11.5917l10.6417,0.6375ZM156.599,0l2.46667,0.15l9.2375,24.1542l-2.8375,-0.166667l-2.36667,-6.3375l-12.7083,-0.758333l-3.1375,6.00417l-2.70417,-0.1625l12.05,-22.8833Z" style="fill:#0078bf;fill-rule:nonzero;"/><path d="M183.748,6.54917l-7.62083,-1.90833l0.595833,-2.36667l17.8292,4.46667l-0.595833,2.36667l-7.61667,-1.90833l-5.09167,20.3208l-2.59167,-0.65l5.09167,-20.3208Z" style="fill:#0078bf;fill-rule:nonzero;"/><path d="M202.338,9.72333l2.4625,0.958333l-8.47917,21.8125l-2.45833,-0.958333l8.475,-21.8125Z" style="fill:#0078bf;fill-rule:nonzero;"/><path d="M226.056,34.7121l0.0291667,-0.0625c2.64583,-4.60417 1.44167,-10.3042 -3.19583,-12.9583c-4.64167,-2.6625 -10.075,-0.845833 -12.7167,3.76667l-0.0333333,0.0583333c-2.64167,4.60833 -1.4375,10.3083 3.20417,12.9625c4.6375,2.65833 10.0708,0.841667 12.7125,-3.76667M207.731,24.2079l0.0333333,-0.0541667c3.20417,-5.59583 10.2167,-8.0875 16.3917,-4.55c6.17917,3.5375 7.55,10.7542 4.34167,16.3542l-0.0333333,0.0583333c-3.20417,5.59583 -10.2167,8.08333 -16.3917,4.54583c-6.175,-3.5375 -7.55,-10.7542 -4.34167,-16.3542" style="fill:#0078bf;fill-rule:nonzero;"/><path d="M242.5,32.0746l1.84167,1.65417l-1.5625,23.7958l12.5292,-13.9458l1.9125,1.71667l-15.6292,17.4042l-1.56667,-1.40417l1.575,-24.3667l-12.8167,14.275l-1.91667,-1.72083l15.6333,-17.4083Z" style="fill:#0078bf;fill-rule:nonzero;"/><path d="M253.531,61.3437l10.9083,-8.125l1.575,2.11667l-10.7708,8.025c-4.04583,3.0125 -4.72917,6.85417 -2.05,10.4458c2.57083,3.45417 6.3,4.09583 10.4,1.04167l10.9042,-8.125l1.57917,2.12083l-10.7458,8c-5.46667,4.075 -10.6417,3.05417 -14.1333,-1.63333c-3.45417,-4.6375 -2.97083,-9.91667 2.33333,-13.8667" style="fill:#0078bf;fill-rule:nonzero;"/><path d="M281.784,78.1425l1.11667,2.43333l-8.05417,13.0667l15.1625,2.425l1.1125,2.43333l-21.2625,9.75417l-1.10417,-2.4l17.225,-7.9l-14.9458,-2.52083l-0.0583333,-0.120833l7.8125,-12.9625l-17.1958,7.8875l-1.075,-2.3375l21.2667,-9.75833Z" style="fill:#0078bf;fill-rule:nonzero;"/><clipPath id="tag1"><path d="M24.869,249.79c-1.1375,0.554167 0.383333,0.808333 0.383333,0.808333c13.3875,3.525 16.7125,13.8542 26.9875,19.6125c15.3333,8.5875 27.2458,2.15417 28.3875,1.60417c1.1375,-0.554167 -0.379167,-0.804167 -0.379167,-0.804167c-13.3958,-3.52917 -16.55,-13.8375 -26.9958,-19.625c-6.05833,-3.35833 -11.575,-4.4 -16.1,-4.4c-6.9625,0 -11.5875,2.47083 -12.2833,2.80417Z"/></clipPath><g clip-path="url(#tag1)"><rect x="-112.477" y="-1710.92" width="3504.17" height="2479.17" style="fill:url(#tag2);fill-rule:nonzero;"/></g><clipPath id="tag3"><path d="M3.76063,194.09c6.7625,7.91667 4.38333,15.7292 8.26667,23.6833c5.79167,11.875 15.9042,13.0083 16.85,13.1542c0.9375,0.145833 0.1125,-0.666667 0.1125,-0.666667c-6.7625,-7.91667 -4.29583,-15.6333 -8.26667,-23.6792c-5.84583,-11.85 -15.9083,-13.0042 -16.85,-13.15c-0.0791667,-0.0166667 -0.145833,-0.0208333 -0.2,-0.0208333c-0.608333,0 0.0875,0.679167 0.0875,0.679167Z"/></clipPath><g clip-path="url(#tag3)"><rect x="-112.477" y="-1710.92" width="3504.17" height="2479.17" style="fill:url(#tag4);fill-rule:nonzero;"/></g><clipPath id="tag5"><path d="M1.73146,144.365c2.4375,8.24167 -1.975,13.3417 -1.72083,20.6542c0.379167,10.9083 7.6375,15.1583 8.3,15.5875c0.654167,0.425 0.304167,-0.4625 0.304167,-0.4625c-2.44167,-8.25 2.0125,-13.2458 1.72083,-20.6542c-0.429167,-10.9083 -7.63333,-15.1625 -8.3,-15.5917c-0.125,-0.0791667 -0.216667,-0.116667 -0.279167,-0.116667c-0.254167,0 -0.025,0.583333 -0.025,0.583333Z"/></clipPath><g clip-path="url(#tag5)"><rect x="-112.477" y="-1710.92" width="3504.17" height="2479.17" style="fill:url(#tag6);fill-rule:nonzero;"/></g><clipPath id="tag7"><path d="M79.5065,285.645c0,0 -1.575,-0.5625 -0.7875,0.5625c0.158333,0.225 9.75,7.7875 34.0083,11.975c19.275,3.32917 27.2083,1.8125 29.2875,0.970833c0.520833,-0.2125 0.7,-0.679167 0.4875,-1.14583c-0.558333,-1.25833 -7.90833,-16.6417 -27,-16.6417c-12.7917,0 -21.4292,8.05417 -35.9958,4.27917Z"/></clipPath><g clip-path="url(#tag7)"><rect x="-112.477" y="-1710.92" width="3504.17" height="2479.17" style="fill:url(#tag8);fill-rule:nonzero;"/></g><clipPath id="tag9"><path d="M243.719,251.386c-10.4333,5.7875 -13.5917,16.0958 -26.9833,19.625c0,0 -1.52083,0.25 -0.379167,0.804167c1.14167,0.55 13.0458,6.98333 28.3833,-1.60417c10.2708,-5.75833 13.5958,-16.0875 26.9917,-19.6125c0,0 1.5125,-0.254167 0.375,-0.808333c-0.6875,-0.333333 -5.32083,-2.80417 -12.2792,-2.80417c-4.52917,0 -10.0375,1.04167 -16.1083,4.4Z"/></clipPath><g clip-path="url(#tag9)"><rect x="-112.477" y="-1710.92" width="3504.17" height="2479.17" style="fill:url(#tag10);fill-rule:nonzero;"/></g><clipPath id="tag11"><path d="M293.106,194.628c-0.941667,0.15 -11.0042,1.3 -16.85,13.15c-3.97083,8.05 -1.50417,15.7667 -8.26667,23.6833c0,0 -0.825,0.8125 0.116667,0.666667c0.9375,-0.145833 11.05,-1.27917 16.8458,-13.1542c3.87917,-7.95417 1.50833,-15.7708 8.26667,-23.6833c0,0 0.695833,-0.679167 0.0875,-0.679167c-0.0583333,0 -0.125,0.00416667 -0.2,0.0166667Z"/></clipPath><g clip-path="url(#tag11)"><rect x="-112.477" y="-1710.92" width="3504.17" height="2479.17" style="fill:url(#tag12);fill-rule:nonzero;"/></g><clipPath id="tag13"><path d="M294.944,145.099c-0.666667,0.429167 -7.87083,4.67917 -8.3,15.5875c-0.291667,7.40417 4.1625,12.4042 1.72083,20.6583c0,0 -0.354167,0.883333 0.308333,0.458333c0.658333,-0.425 7.91667,-4.67917 8.29583,-15.5875c0.254167,-7.3125 -4.1625,-12.4083 -1.72083,-20.6583c0,0 0.229167,-0.575 -0.0291667,-0.575c-0.0583333,0 -0.15,0.0333333 -0.275,0.116667Z"/></clipPath><g clip-path="url(#tag13)"><rect x="-112.477" y="-1710.92" width="3504.17" height="2479.17" style="fill:url(#tag14);fill-rule:nonzero;"/></g><clipPath id="tag15"><path d="M154.473,298.007c-0.208333,0.4625 -0.0333333,0.929167 0.491667,1.14167c2.07917,0.841667 10.0167,2.35833 29.2875,-0.966667c24.2583,-4.1875 33.8542,-11.75 34.0042,-11.9792c0.7875,-1.125 -0.7875,-0.5625 -0.7875,-0.5625c-14.5625,3.775 -23.2,-4.275 -35.9917,-4.275c-19.0917,0 -26.4417,15.3833 -27.0042,16.6417Z"/></clipPath><g clip-path="url(#tag15)"><rect x="-112.477" y="-1710.92" width="3504.17" height="2479.17" style="fill:url(#tag16);fill-rule:nonzero;"/></g><path d="M148.722,122.619c0,0 36.7,-29.8458 84.6542,-29.8458l0,122.521c0,0 -45.0167,-2.44583 -84.6542,29.85l0,-122.525Z" style="fill:#013a79;fill-rule:nonzero;"/><path d="M148.85,122.619c0,0 -36.7,-29.8458 -84.6542,-29.8458l0,122.521c0,0 45.0208,-2.44583 84.6542,29.85l0,-122.525Z" style="fill:#0078bf;fill-rule:nonzero;"/><path d="M142.904,87.5554l2.27083,-5.95417l-5.95833,-4.725l7.01667,0l2.45,-6.46667l2.27917,6.46667l7,0l-5.77917,4.725l2.45833,5.95417l-5.95833,-4.20417l-5.77917,4.20417Z" style="fill:#e2ba00;fill-rule:nonzero;"/><path d="M177.468,94.9371l2.2875,-5.7875l-5.79167,-4.7125l7.0125,0l2.45833,-6.47917l2.27083,6.47917l7.00417,0l-5.95833,4.7125l2.62917,5.7875l-5.94583,-4.2l-5.96667,4.2Z" style="fill:#e2ba00;fill-rule:nonzero;"/><path d="M108.098,94.9371l2.28333,-5.7875l-5.79167,-4.7125l7.0125,0l2.4625,-6.47917l2.27083,6.47917l7.00417,0l-5.9625,4.7125l2.63333,5.7875l-5.94583,-4.2l-5.96667,4.2Z" style="fill:#e2ba00;fill-rule:nonzero;"/><path d="M201.273,121.075l2.45417,-6.125l-6.1375,-4.72083l7.3625,0l2.45417,-6.11667l1.925,6.11667l7.35833,0l-6.125,4.72083l2.45,6.125l-5.60833,-4.19167l-6.13333,4.19167Z" style="fill:#e2ba00;fill-rule:nonzero;"/><path d="M84.1752,121.075l2.45417,-6.125l-6.1375,-4.72083l7.3625,0l2.45417,-6.11667l1.92917,6.11667l7.35417,0l-6.125,4.72083l2.45,6.125l-5.60833,-4.19167l-6.13333,4.19167Z" style="fill:#e2ba00;fill-rule:nonzero;"/><path d="M204.329,151.99l2.31667,-5.6125l-5.79167,-4.4625l6.95,0l2.31667,-5.78333l1.82083,5.78333l6.9625,0l-5.8,4.4625l2.325,5.6125l-5.30833,-3.7875l-5.79167,3.7875Z" style="fill:#e2ba00;fill-rule:nonzero;"/><path d="M81.9948,151.99l2.31667,-5.6125l-5.79167,-4.4625l6.95,0l2.31667,-5.78333l1.82083,5.78333l6.9625,0l-5.8,4.4625l2.325,5.6125l-5.30833,-3.7875l-5.79167,3.7875Z" style="fill:#e2ba00;fill-rule:nonzero;"/><path d="M196.737,181.053l2.275,-6.12083l-5.95,-4.72917l6.99167,0l2.45833,-6.12917l2.275,6.12917l7.0125,0l-5.77917,4.72917l2.45,6.12083l-5.95833,-4.2l-5.775,4.2Z" style="fill:#e2ba00;fill-rule:nonzero;"/><path d="M89.3006,181.053l2.275,-6.12083l-5.95,-4.72917l6.99167,0l2.45417,-6.12917l2.27917,6.12917l7.0125,0l-5.78333,4.72917l2.45417,6.12083l-5.9625,-4.2l-5.77083,4.2Z" style="fill:#e2ba00;fill-rule:nonzero;"/><path d="M174.71,205.25l2.4625,-6.125l-6.15,-4.90417l7.1875,0l2.62917,-6.12917l2.275,6.12917l7.1875,0l-6.125,4.90417l2.45,6.125l-5.7875,-4.19583l-6.12917,4.19583Z" style="fill:#e2ba00;fill-rule:nonzero;"/><path d="M110.852,205.25l2.4625,-6.125l-6.14583,-4.90417l7.17917,0l2.63333,-6.12917l2.275,6.12917l7.1875,0l-6.125,4.90417l2.45417,6.125l-5.79167,-4.19583l-6.12917,4.19583Z" style="fill:#e2ba00;fill-rule:nonzero;"/><path d="M142.828,213.878l2.62083,-6.29167l-6.29583,-4.37917l7.34583,0l2.45833,-6.475l2.1,6.475l7.17917,0l-5.77917,4.37917l2.10417,6.29167l-5.60417,-4.19583l-6.12917,4.19583Z" style="fill:#e2ba00;fill-rule:nonzero;"/></g><defs><linearGradient id="tag2" x1="0" y1="0" x2="1" y2="0" gradientUnits="userSpaceOnUse" gradientTransform="matrix(0,-270.536,270.536,0,52.7479,309.651)"><stop offset="0%" style="stop-color:#f39000;stop-opacity:1"/><stop offset="100%" style="stop-color:#f9dc09;stop-opacity:1"/></linearGradient><linearGradient id="tag4" x1="0" y1="0" x2="1" y2="0" gradientUnits="userSpaceOnUse" gradientTransform="matrix(0,-270.534,270.534,0,16.3744,309.052)"><stop offset="0%" style="stop-color:#f39000;stop-opacity:1"/><stop offset="100%" style="stop-color:#f9dc09;stop-opacity:1"/></linearGradient><linearGradient id="tag6" x1="0" y1="0" x2="1" y2="0" gradientUnits="userSpaceOnUse" gradientTransform="matrix(0,-270.532,270.532,0,5.17584,309.05)"><stop offset="0%" style="stop-color:#f39000;stop-opacity:1"/><stop offset="100%" style="stop-color:#f9dc09;stop-opacity:1"/></linearGradient><linearGradient id="tag8" x1="0" y1="0" x2="1" y2="0" gradientUnits="userSpaceOnUse" gradientTransform="matrix(0,-259.128,259.128,0,110.545,309.784)"><stop offset="0%" style="stop-color:#f39000;stop-opacity:1"/><stop offset="100%" style="stop-color:#f9dc09;stop-opacity:1"/></linearGradient><linearGradient id="tag10" x1="0" y1="0" x2="1" y2="0" gradientUnits="userSpaceOnUse" gradientTransform="matrix(0,-270.536,-270.536,-0,244.232,309.651)"><stop offset="0%" style="stop-color:#f39000;stop-opacity:1"/><stop offset="100%" style="stop-color:#f9dc09;stop-opacity:1"/></linearGradient><linearGradient id="tag12" x1="0" y1="0" x2="1" y2="0" gradientUnits="userSpaceOnUse" gradientTransform="matrix(0,-270.534,-270.534,-0,280.605,310.252)"><stop offset="0%" style="stop-color:#f39000;stop-opacity:1"/><stop offset="100%" style="stop-color:#f9dc09;stop-opacity:1"/></linearGradient><linearGradient id="tag14" x1="0" y1="0" x2="1" y2="0" gradientUnits="userSpaceOnUse" gradientTransform="matrix(0,-270.514,-270.514,-0,291.805,310.239)"><stop offset="0%" style="stop-color:#f39000;stop-opacity:1"/><stop offset="100%" style="stop-color:#f9dc09;stop-opacity:1"/></linearGradient><linearGradient id="tag16" x1="0" y1="0" x2="1" y2="0" gradientUnits="userSpaceOnUse" gradientTransform="matrix(0,-259.095,-259.095,-0,186.435,309.782)"><stop offset="0%" style="stop-color:#f39000;stop-opacity:1"/><stop offset="100%" style="stop-color:#f9dc09;stop-opacity:1"/></linearGradient></defs></svg>